<?xml version="1.0" encoding="UTF-8" standalone="no"?>
<!-- Created with Inkscape (http://www.inkscape.org/) -->

<svg
   width="14.319902mm"
   height="18.478168mm"
   viewBox="0 0 14.319902 18.478168"
   version="1.1"
   id="svg1"
   xmlns="http://www.w3.org/2000/svg"
   xmlns:svg="http://www.w3.org/2000/svg">
  <defs
     id="defs1" />
  <g
     id="layer1"
     style="display:none;opacity:1"
     transform="translate(-98.084696,-139.86394)">
    <rect
       style="fill:#ffffff;stroke-width:0.264583"
       id="rect3"
       width="15.908537"
       height="20.831404"
       x="97.045731"
       y="138.0843" />
  </g>
  <path
     style="display:none;fill:#000000;stroke-width:0.184874"
     d="m 3.7499638,18.147308 v 0.61549 h 5.84112 v -0.61463 c -1.56801,-0.20857 -2.07342,-0.10029 -2.01708,-1.63735 h -1.70045 c 0.0967,1.62883 -0.45448,1.46498 -2.12359,1.63649 z"
     id="path2" />
  <g
     id="layer2"
     style="display:none"
     transform="translate(-98.084696,-140.43754)">
    <rect
       style="fill:#000000;stroke-width:0.235871"
       id="rect4"
       width="2.2307954"
       height="15.355801"
       x="103.68181"
       y="143.55991" />
    <rect
       style="fill:#000000;stroke-width:0.216968"
       id="rect5"
       width="8.6522198"
       height="1.599867"
       x="-35.272881"
       y="174.80383"
       transform="rotate(-45)" />
    <path
       style="fill:#000000;stroke-width:0.172818"
       d="m 98.292084,149.24712 c -0.202973,0.64765 0.03304,1.5861 0.585079,1.87261 0.830551,0.43106 1.417757,-0.41771 1.317757,-0.94677 -0.13614,-0.7202 -0.546606,-1.13876 -0.661954,-1.33351 -0.111118,-0.18863 -0.13168,-0.27671 -0.13168,-0.27671 l -0.164892,-0.25006 c 0,0 -0.584166,-0.21469 -0.94431,0.93444 z"
       id="path12-4" />
    <rect
       style="fill:#000000;stroke-width:0.216968"
       id="rect5-8"
       width="8.6522198"
       height="1.599867"
       x="-183.44717"
       y="26.629545"
       transform="matrix(-0.70710678,-0.70710678,-0.70710678,0.70710678,0,0)" />
    <path
       style="fill:#000000;stroke-width:0.172818"
       d="m 111.25801,149.24712 c 0.20297,0.64765 -0.033,1.5861 -0.58508,1.87261 -0.83055,0.43106 -1.41776,-0.41771 -1.31776,-0.94677 0.13614,-0.7202 0.54661,-1.13876 0.66195,-1.33351 0.11112,-0.18863 0.13168,-0.27671 0.13168,-0.27671 l 0.1649,-0.25006 c 0,0 0.58416,-0.21469 0.94431,0.93444 z"
       id="path12-4-4" />
  </g>
  <g
     id="layer2-6"
     style="display:none"
     transform="translate(-98.084696,-140.43754)">
    <rect
       style="fill:#000000;stroke-width:0.235871"
       id="rect4-2"
       width="2.2307954"
       height="15.355801"
       x="103.68181"
       y="143.55991"
       ry="0.57360518" />
    <rect
       style="fill:#000000;stroke-width:0.216968"
       id="rect5-0"
       width="8.6522198"
       height="1.599867"
       x="-35.272881"
       y="174.80383"
       transform="rotate(-45)" />
    <path
       style="fill:#000000;stroke-width:0.172818"
       d="m 98.292084,149.24712 c -0.202973,0.64765 0.03304,1.5861 0.585079,1.87261 0.830551,0.43106 1.417757,-0.41771 1.317757,-0.94677 -0.13614,-0.7202 -0.546606,-1.13876 -0.661954,-1.33351 -0.111118,-0.18863 -0.13168,-0.27671 -0.13168,-0.27671 l -0.164892,-0.25006 c 0,0 -0.584166,-0.21469 -0.94431,0.93444 z"
       id="path12-4-2" />
    <rect
       style="fill:#000000;stroke-width:0.216968"
       id="rect5-8-1"
       width="8.6522198"
       height="1.599867"
       x="-183.44717"
       y="26.629545"
       transform="matrix(-0.70710678,-0.70710678,-0.70710678,0.70710678,0,0)" />
    <path
       style="fill:#000000;stroke-width:0.172818"
       d="m 111.25801,149.24712 c 0.20297,0.64765 -0.033,1.5861 -0.58508,1.87261 -0.83055,0.43106 -1.41776,-0.41771 -1.31776,-0.94677 0.13614,-0.7202 0.54661,-1.13876 0.66195,-1.33351 0.11112,-0.18863 0.13168,-0.27671 0.13168,-0.27671 l 0.1649,-0.25006 c 0,0 0.58416,-0.21469 0.94431,0.93444 z"
       id="path12-4-4-8" />
  </g>
  <g
     id="layer3"
     style="display:inline"
     transform="translate(-98.084696,-140.43754)">
    <g
       id="layer5-0"
       transform="matrix(1.1594975,0,0,1.1594975,-17.727082,-22.048385)"
       style="display:none">
      <path
         d="m 116.77506,138.39586 -1.4404,2.49543 a 0.1911167,0.1911167 59.997064 0 0 0.16552,0.28666 h 2.89697 a 0.17737649,0.17737649 119.99929 0 0 0.15361,-0.26607 l -1.45273,-2.51604 a 0.18646378,0.18646378 179.99635 0 0 -0.32297,2e-5 z"
         style="display:inline;fill:#000000;stroke-width:0.264583"
         id="path18-2"
         transform="matrix(1.444469,0,0,1.444469,-59.07528,-60.820853)" />
      <path
         d="m 116.77506,138.39586 -1.4404,2.49543 a 0.1911167,0.1911167 59.997064 0 0 0.16552,0.28666 h 2.89697 a 0.17737649,0.17737649 119.99929 0 0 0.15361,-0.26607 l -1.45273,-2.51604 a 0.18646378,0.18646378 179.99635 0 0 -0.32297,2e-5 z"
         style="display:inline;fill:#68a647;fill-opacity:1;fill-rule:nonzero;stroke-width:0.264583"
         id="path18-4-9"
         transform="matrix(1.071254,0,0,1.071254,-15.401691,-8.5059351)" />
    </g>
    <g
       id="g3"
       transform="matrix(1.1594975,0,0,-1.1594975,-17.693275,306.36895)"
       style="display:inline">
      <path
         d="m 116.77506,138.39586 -1.4404,2.49543 a 0.1911167,0.1911167 59.997064 0 0 0.16552,0.28666 h 2.89697 a 0.17737649,0.17737649 119.99929 0 0 0.15361,-0.26607 l -1.45273,-2.51604 a 0.18646378,0.18646378 179.99635 0 0 -0.32297,2e-5 z"
         style="display:inline;fill:#000000;stroke-width:0.264583"
         id="path1"
         transform="matrix(1.444469,0,0,1.444469,-59.07528,-60.820853)" />
      <path
         d="m 116.77506,138.39586 -1.4404,2.49543 a 0.1911167,0.1911167 59.997064 0 0 0.16552,0.28666 h 2.89697 a 0.17737649,0.17737649 119.99929 0 0 0.15361,-0.26607 l -1.45273,-2.51604 a 0.18646378,0.18646378 179.99635 0 0 -0.32297,2e-5 z"
         style="display:inline;fill:#cd4646;fill-opacity:1;stroke-width:0.264583"
         id="path3"
         transform="matrix(1.071254,0,0,1.071254,-15.401691,-8.5059351)" />
    </g>
  </g>
  <g
     id="layer2-0"
     transform="translate(-98.079082,-140.43754)"
     style="display:none">
    <rect
       style="fill:#000000;stroke-width:0.235871"
       id="rect4-6"
       width="2.2307954"
       height="15.355801"
       x="103.68181"
       y="143.55991" />
    <rect
       style="fill:#000000;stroke-width:0.216968"
       id="rect5-7"
       width="8.6522198"
       height="1.599867"
       x="-35.272881"
       y="174.80383"
       transform="rotate(-45)" />
    <path
       style="fill:#000000;stroke-width:0.234268"
       d="m 98.085678,149.58116 c -0.275145,0.87794 0.04479,2.15008 0.793119,2.53846 1.125873,0.58434 1.921873,-0.56623 1.786323,-1.28341 -0.18455,-0.97629 -0.740971,-1.54368 -0.897334,-1.80768 -0.150628,-0.2557 -0.178502,-0.3751 -0.178502,-0.3751 l -0.223523,-0.33897 c 0,0 -0.791881,-0.29103 -1.280083,1.2667 z"
       id="path12-4-7" />
    <rect
       style="fill:#000000;stroke-width:0.216968"
       id="rect5-7-3"
       width="8.6522198"
       height="1.599867"
       x="-183.47057"
       y="26.606142"
       transform="matrix(-0.70710678,-0.70710678,-0.70710678,0.70710678,0,0)" />
    <path
       style="fill:#000000;stroke-width:0.234268"
       d="m 111.49751,149.58116 c 0.27514,0.87794 -0.0448,2.15008 -0.79312,2.53846 -1.12588,0.58434 -1.92188,-0.56623 -1.78633,-1.28341 0.18455,-0.97629 0.74097,-1.54368 0.89734,-1.80768 0.15063,-0.2557 0.1785,-0.3751 0.1785,-0.3751 l 0.22352,-0.33897 c 0,0 0.79188,-0.29103 1.28009,1.2667 z"
       id="path12-4-7-7" />
  </g>
  <g
     id="g9"
     style="display:inline"
     transform="translate(-98.084696,-140.43754)">
    <rect
       style="fill:#000000;stroke-width:0.235871"
       id="rect6"
       width="2.2307954"
       height="15.355801"
       x="103.68181"
       y="143.55991" />
    <rect
       style="fill:#000000;stroke-width:0.216968"
       id="rect7"
       width="8.6522198"
       height="1.599867"
       x="-35.272881"
       y="174.80383"
       transform="rotate(-45)" />
    <rect
       style="fill:#000000;stroke-width:0.216968"
       id="rect8"
       width="8.6522198"
       height="1.599867"
       x="-183.44717"
       y="26.629545"
       transform="matrix(-0.70710678,-0.70710678,-0.70710678,0.70710678,0,0)" />
    <path
       style="fill:#000000;stroke-width:0.194042"
       d="m 110.76787,148.43195 c 0.56097,0.51581 0.85836,1.56082 0.48237,2.14935 -0.5656,0.88544 -1.6131,0.38977 -1.81287,-0.18082 -0.27195,-0.77674 -0.10779,-1.41417 -0.10499,-1.6683 0.002,-0.2458 -0.0273,-0.34299 -0.0273,-0.34299 l 0.02,-0.33574 c 0,0 0.44749,-0.53671 1.44282,0.3785 z"
       id="path9" />
    <path
       style="display:inline;fill:#000000;stroke-width:0.194042"
       d="m 98.734813,148.43195 c -0.56097,0.51581 -0.85836,1.56082 -0.48237,2.14935 0.5656,0.88544 1.6131,0.38977 1.812867,-0.18082 0.27196,-0.77674 0.10779,-1.41417 0.10499,-1.6683 -0.002,-0.2458 0.0273,-0.34299 0.0273,-0.34299 l -0.02,-0.33574 c 0,0 -0.447492,-0.53671 -1.442822,0.3785 z"
       id="path9-3" />
  </g>
</svg>
